<mxfile host="app.diagrams.net" modified="2023-04-03T10:12:15.542Z" agent="Mozilla/5.0 (Windows NT 10.0; Win64; x64) AppleWebKit/537.36 (KHTML, like Gecko) Chrome/111.0.0.0 Safari/537.36" etag="ZT7S4ONy0NZEtEemXeNM" version="21.1.3" type="device" pages="3">
  <diagram id="BdVFiyys641aNaYM0nQa" name="Soal 1">
    <mxGraphModel dx="1050" dy="541" grid="1" gridSize="10" guides="1" tooltips="1" connect="1" arrows="1" fold="1" page="1" pageScale="1" pageWidth="827" pageHeight="1169" math="0" shadow="0">
      <root>
        <mxCell id="0" />
        <mxCell id="1" parent="0" />
        <mxCell id="4cfuieiO_ebWDx_4-xT_-1" value="" style="edgeStyle=orthogonalEdgeStyle;rounded=0;orthogonalLoop=1;jettySize=auto;html=1;" edge="1" parent="1" source="4cfuieiO_ebWDx_4-xT_-2" target="4cfuieiO_ebWDx_4-xT_-18">
          <mxGeometry relative="1" as="geometry" />
        </mxCell>
        <mxCell id="4cfuieiO_ebWDx_4-xT_-2" value="Mulai" style="strokeWidth=2;html=1;shape=mxgraph.flowchart.start_1;whiteSpace=wrap;" vertex="1" parent="1">
          <mxGeometry x="314" y="30" width="100" height="60" as="geometry" />
        </mxCell>
        <mxCell id="4cfuieiO_ebWDx_4-xT_-3" value="" style="edgeStyle=orthogonalEdgeStyle;rounded=0;orthogonalLoop=1;jettySize=auto;html=1;" edge="1" parent="1" source="4cfuieiO_ebWDx_4-xT_-4" target="4cfuieiO_ebWDx_4-xT_-7">
          <mxGeometry relative="1" as="geometry" />
        </mxCell>
        <mxCell id="4cfuieiO_ebWDx_4-xT_-4" value="Input (N)" style="shape=parallelogram;perimeter=parallelogramPerimeter;whiteSpace=wrap;html=1;fixedSize=1;strokeWidth=2;" vertex="1" parent="1">
          <mxGeometry x="304" y="280" width="120" height="60" as="geometry" />
        </mxCell>
        <mxCell id="4cfuieiO_ebWDx_4-xT_-5" value="" style="edgeStyle=orthogonalEdgeStyle;rounded=0;orthogonalLoop=1;jettySize=auto;html=1;" edge="1" parent="1" source="4cfuieiO_ebWDx_4-xT_-7" target="4cfuieiO_ebWDx_4-xT_-9">
          <mxGeometry relative="1" as="geometry" />
        </mxCell>
        <mxCell id="4cfuieiO_ebWDx_4-xT_-6" value="" style="edgeStyle=orthogonalEdgeStyle;rounded=0;orthogonalLoop=1;jettySize=auto;html=1;entryX=0;entryY=0.5;entryDx=0;entryDy=0;" edge="1" parent="1" source="4cfuieiO_ebWDx_4-xT_-7" target="VRuPzgdQIS3DxP88_RjX-4">
          <mxGeometry relative="1" as="geometry">
            <mxPoint x="500" y="420" as="targetPoint" />
          </mxGeometry>
        </mxCell>
        <mxCell id="4cfuieiO_ebWDx_4-xT_-7" value="N == 0 || N == 1" style="strokeWidth=2;html=1;shape=mxgraph.flowchart.decision;whiteSpace=wrap;" vertex="1" parent="1">
          <mxGeometry x="314" y="370" width="100" height="100" as="geometry" />
        </mxCell>
        <mxCell id="4cfuieiO_ebWDx_4-xT_-8" value="" style="edgeStyle=orthogonalEdgeStyle;rounded=0;orthogonalLoop=1;jettySize=auto;html=1;" edge="1" parent="1" source="4cfuieiO_ebWDx_4-xT_-9" target="4cfuieiO_ebWDx_4-xT_-12">
          <mxGeometry relative="1" as="geometry" />
        </mxCell>
        <mxCell id="4cfuieiO_ebWDx_4-xT_-9" value="Output (&quot;Bukan Bilangan Prima&quot;)" style="shape=parallelogram;perimeter=parallelogramPerimeter;whiteSpace=wrap;html=1;fixedSize=1;strokeWidth=2;" vertex="1" parent="1">
          <mxGeometry x="281" y="563.75" width="166" height="60" as="geometry" />
        </mxCell>
        <mxCell id="4cfuieiO_ebWDx_4-xT_-12" value="Selesai" style="strokeWidth=2;html=1;shape=mxgraph.flowchart.start_1;whiteSpace=wrap;" vertex="1" parent="1">
          <mxGeometry x="314" y="700" width="100" height="60" as="geometry" />
        </mxCell>
        <mxCell id="4cfuieiO_ebWDx_4-xT_-13" value="ya" style="text;html=1;align=center;verticalAlign=middle;resizable=0;points=[];autosize=1;strokeColor=none;fillColor=none;" vertex="1" parent="1">
          <mxGeometry x="330" y="465" width="40" height="30" as="geometry" />
        </mxCell>
        <mxCell id="4cfuieiO_ebWDx_4-xT_-14" value="tidak" style="text;html=1;align=center;verticalAlign=middle;resizable=0;points=[];autosize=1;strokeColor=none;fillColor=none;" vertex="1" parent="1">
          <mxGeometry x="415" y="395" width="50" height="30" as="geometry" />
        </mxCell>
        <mxCell id="VRuPzgdQIS3DxP88_RjX-2" value="" style="edgeStyle=orthogonalEdgeStyle;rounded=0;orthogonalLoop=1;jettySize=auto;html=1;" edge="1" parent="1" source="4cfuieiO_ebWDx_4-xT_-18" target="VRuPzgdQIS3DxP88_RjX-1">
          <mxGeometry relative="1" as="geometry" />
        </mxCell>
        <mxCell id="4cfuieiO_ebWDx_4-xT_-18" value="boolean validasi" style="shape=internalStorage;whiteSpace=wrap;html=1;dx=15;dy=15;rounded=1;arcSize=8;strokeWidth=2;" vertex="1" parent="1">
          <mxGeometry x="289" y="120" width="150" height="50" as="geometry" />
        </mxCell>
        <mxCell id="VRuPzgdQIS3DxP88_RjX-3" value="" style="edgeStyle=orthogonalEdgeStyle;rounded=0;orthogonalLoop=1;jettySize=auto;html=1;" edge="1" parent="1" source="VRuPzgdQIS3DxP88_RjX-1" target="4cfuieiO_ebWDx_4-xT_-4">
          <mxGeometry relative="1" as="geometry" />
        </mxCell>
        <mxCell id="VRuPzgdQIS3DxP88_RjX-1" value="validasi = true" style="rounded=0;whiteSpace=wrap;html=1;strokeWidth=2;" vertex="1" parent="1">
          <mxGeometry x="304" y="210" width="120" height="30" as="geometry" />
        </mxCell>
        <mxCell id="VRuPzgdQIS3DxP88_RjX-13" value="" style="edgeStyle=orthogonalEdgeStyle;rounded=0;orthogonalLoop=1;jettySize=auto;html=1;" edge="1" parent="1" source="VRuPzgdQIS3DxP88_RjX-4" target="VRuPzgdQIS3DxP88_RjX-7">
          <mxGeometry relative="1" as="geometry" />
        </mxCell>
        <mxCell id="VRuPzgdQIS3DxP88_RjX-4" value="i = 2 to (N-1)" style="shape=hexagon;perimeter=hexagonPerimeter2;whiteSpace=wrap;html=1;fixedSize=1;strokeWidth=2;" vertex="1" parent="1">
          <mxGeometry x="520" y="395" width="100" height="50" as="geometry" />
        </mxCell>
        <mxCell id="VRuPzgdQIS3DxP88_RjX-20" value="" style="edgeStyle=orthogonalEdgeStyle;rounded=0;orthogonalLoop=1;jettySize=auto;html=1;" edge="1" parent="1" source="VRuPzgdQIS3DxP88_RjX-5" target="VRuPzgdQIS3DxP88_RjX-19">
          <mxGeometry relative="1" as="geometry" />
        </mxCell>
        <mxCell id="VRuPzgdQIS3DxP88_RjX-23" style="edgeStyle=orthogonalEdgeStyle;rounded=0;orthogonalLoop=1;jettySize=auto;html=1;entryX=1;entryY=0.5;entryDx=0;entryDy=0;" edge="1" parent="1" source="VRuPzgdQIS3DxP88_RjX-5" target="4cfuieiO_ebWDx_4-xT_-9">
          <mxGeometry relative="1" as="geometry" />
        </mxCell>
        <mxCell id="VRuPzgdQIS3DxP88_RjX-5" value="N % i = 0" style="strokeWidth=2;html=1;shape=mxgraph.flowchart.decision;whiteSpace=wrap;" vertex="1" parent="1">
          <mxGeometry x="533.75" y="557.5" width="72.5" height="72.5" as="geometry" />
        </mxCell>
        <mxCell id="VRuPzgdQIS3DxP88_RjX-26" style="edgeStyle=orthogonalEdgeStyle;rounded=0;orthogonalLoop=1;jettySize=auto;html=1;" edge="1" parent="1" source="VRuPzgdQIS3DxP88_RjX-6" target="4cfuieiO_ebWDx_4-xT_-12">
          <mxGeometry relative="1" as="geometry" />
        </mxCell>
        <mxCell id="VRuPzgdQIS3DxP88_RjX-6" value="Output (&quot;Bilangan Prima&quot;)" style="shape=parallelogram;perimeter=parallelogramPerimeter;whiteSpace=wrap;html=1;fixedSize=1;strokeWidth=2;" vertex="1" parent="1">
          <mxGeometry x="487" y="700" width="166" height="60" as="geometry" />
        </mxCell>
        <mxCell id="VRuPzgdQIS3DxP88_RjX-24" style="edgeStyle=orthogonalEdgeStyle;rounded=0;orthogonalLoop=1;jettySize=auto;html=1;exitX=0.5;exitY=1;exitDx=0;exitDy=0;exitPerimeter=0;entryX=1;entryY=0.5;entryDx=0;entryDy=0;entryPerimeter=0;" edge="1" parent="1" source="VRuPzgdQIS3DxP88_RjX-7" target="VRuPzgdQIS3DxP88_RjX-5">
          <mxGeometry relative="1" as="geometry" />
        </mxCell>
        <mxCell id="VRuPzgdQIS3DxP88_RjX-27" style="edgeStyle=orthogonalEdgeStyle;rounded=0;orthogonalLoop=1;jettySize=auto;html=1;entryX=1;entryY=0.75;entryDx=0;entryDy=0;" edge="1" parent="1" source="VRuPzgdQIS3DxP88_RjX-7" target="VRuPzgdQIS3DxP88_RjX-6">
          <mxGeometry relative="1" as="geometry">
            <Array as="points">
              <mxPoint x="730" y="495" />
              <mxPoint x="730" y="742" />
            </Array>
          </mxGeometry>
        </mxCell>
        <mxCell id="VRuPzgdQIS3DxP88_RjX-7" value="i &amp;lt;= (N-1)" style="strokeWidth=2;html=1;shape=mxgraph.flowchart.decision;whiteSpace=wrap;" vertex="1" parent="1">
          <mxGeometry x="640" y="462.5" width="70" height="65" as="geometry" />
        </mxCell>
        <mxCell id="VRuPzgdQIS3DxP88_RjX-16" value="ya" style="text;html=1;align=center;verticalAlign=middle;resizable=0;points=[];autosize=1;strokeColor=none;fillColor=none;" vertex="1" parent="1">
          <mxGeometry x="493.75" y="570" width="40" height="30" as="geometry" />
        </mxCell>
        <mxCell id="VRuPzgdQIS3DxP88_RjX-21" value="" style="edgeStyle=orthogonalEdgeStyle;rounded=0;orthogonalLoop=1;jettySize=auto;html=1;" edge="1" parent="1" source="VRuPzgdQIS3DxP88_RjX-19" target="VRuPzgdQIS3DxP88_RjX-4">
          <mxGeometry relative="1" as="geometry" />
        </mxCell>
        <mxCell id="VRuPzgdQIS3DxP88_RjX-19" value="i++" style="rounded=0;whiteSpace=wrap;html=1;strokeWidth=2;" vertex="1" parent="1">
          <mxGeometry x="546.25" y="480" width="47.5" height="30" as="geometry" />
        </mxCell>
        <mxCell id="VRuPzgdQIS3DxP88_RjX-22" value="tidak" style="text;html=1;align=center;verticalAlign=middle;resizable=0;points=[];autosize=1;strokeColor=none;fillColor=none;" vertex="1" parent="1">
          <mxGeometry x="520" y="517.5" width="50" height="30" as="geometry" />
        </mxCell>
        <mxCell id="VRuPzgdQIS3DxP88_RjX-25" value="ya" style="text;html=1;align=center;verticalAlign=middle;resizable=0;points=[];autosize=1;strokeColor=none;fillColor=none;" vertex="1" parent="1">
          <mxGeometry x="630" y="525" width="40" height="30" as="geometry" />
        </mxCell>
        <mxCell id="VRuPzgdQIS3DxP88_RjX-28" value="tidak" style="text;html=1;align=center;verticalAlign=middle;resizable=0;points=[];autosize=1;strokeColor=none;fillColor=none;" vertex="1" parent="1">
          <mxGeometry x="720" y="585" width="50" height="30" as="geometry" />
        </mxCell>
      </root>
    </mxGraphModel>
  </diagram>
  <diagram name="Soal 2" id="DpginUbkhVlZKTtjZTfC">
    <mxGraphModel dx="1050" dy="541" grid="1" gridSize="10" guides="1" tooltips="1" connect="1" arrows="1" fold="1" page="1" pageScale="1" pageWidth="827" pageHeight="1169" math="0" shadow="0">
      <root>
        <mxCell id="0" />
        <mxCell id="1" parent="0" />
        <mxCell id="J4iBYLUkBffQyGrZS7Oj-7" value="" style="edgeStyle=orthogonalEdgeStyle;rounded=0;orthogonalLoop=1;jettySize=auto;html=1;" edge="1" parent="1" source="FInUtN3p591Hj030y6xz-1" target="J4iBYLUkBffQyGrZS7Oj-1">
          <mxGeometry relative="1" as="geometry" />
        </mxCell>
        <mxCell id="FInUtN3p591Hj030y6xz-1" value="Mulai" style="strokeWidth=2;html=1;shape=mxgraph.flowchart.start_1;whiteSpace=wrap;" vertex="1" parent="1">
          <mxGeometry x="314" y="70" width="100" height="60" as="geometry" />
        </mxCell>
        <mxCell id="J4iBYLUkBffQyGrZS7Oj-8" value="" style="edgeStyle=orthogonalEdgeStyle;rounded=0;orthogonalLoop=1;jettySize=auto;html=1;" edge="1" parent="1" source="J4iBYLUkBffQyGrZS7Oj-1" target="J4iBYLUkBffQyGrZS7Oj-3">
          <mxGeometry relative="1" as="geometry" />
        </mxCell>
        <mxCell id="J4iBYLUkBffQyGrZS7Oj-1" value="Input (N)" style="shape=parallelogram;perimeter=parallelogramPerimeter;whiteSpace=wrap;html=1;fixedSize=1;strokeWidth=2;" vertex="1" parent="1">
          <mxGeometry x="304" y="170" width="120" height="60" as="geometry" />
        </mxCell>
        <mxCell id="J4iBYLUkBffQyGrZS7Oj-9" value="" style="edgeStyle=orthogonalEdgeStyle;rounded=0;orthogonalLoop=1;jettySize=auto;html=1;" edge="1" parent="1" source="J4iBYLUkBffQyGrZS7Oj-3" target="J4iBYLUkBffQyGrZS7Oj-4">
          <mxGeometry relative="1" as="geometry" />
        </mxCell>
        <mxCell id="J4iBYLUkBffQyGrZS7Oj-10" value="" style="edgeStyle=orthogonalEdgeStyle;rounded=0;orthogonalLoop=1;jettySize=auto;html=1;" edge="1" parent="1" source="J4iBYLUkBffQyGrZS7Oj-3" target="J4iBYLUkBffQyGrZS7Oj-5">
          <mxGeometry relative="1" as="geometry" />
        </mxCell>
        <mxCell id="J4iBYLUkBffQyGrZS7Oj-3" value="N % 7 == 0" style="strokeWidth=2;html=1;shape=mxgraph.flowchart.decision;whiteSpace=wrap;" vertex="1" parent="1">
          <mxGeometry x="314" y="260" width="100" height="100" as="geometry" />
        </mxCell>
        <mxCell id="J4iBYLUkBffQyGrZS7Oj-11" value="" style="edgeStyle=orthogonalEdgeStyle;rounded=0;orthogonalLoop=1;jettySize=auto;html=1;" edge="1" parent="1" source="J4iBYLUkBffQyGrZS7Oj-4" target="J4iBYLUkBffQyGrZS7Oj-6">
          <mxGeometry relative="1" as="geometry" />
        </mxCell>
        <mxCell id="J4iBYLUkBffQyGrZS7Oj-4" value="Output (&quot;Kelipatan 7&quot;)" style="shape=parallelogram;perimeter=parallelogramPerimeter;whiteSpace=wrap;html=1;fixedSize=1;strokeWidth=2;" vertex="1" parent="1">
          <mxGeometry x="281" y="400" width="166" height="60" as="geometry" />
        </mxCell>
        <mxCell id="J4iBYLUkBffQyGrZS7Oj-12" style="edgeStyle=orthogonalEdgeStyle;rounded=0;orthogonalLoop=1;jettySize=auto;html=1;entryX=1;entryY=0.5;entryDx=0;entryDy=0;entryPerimeter=0;" edge="1" parent="1" source="J4iBYLUkBffQyGrZS7Oj-5" target="J4iBYLUkBffQyGrZS7Oj-6">
          <mxGeometry relative="1" as="geometry">
            <Array as="points">
              <mxPoint x="570" y="530" />
            </Array>
          </mxGeometry>
        </mxCell>
        <mxCell id="J4iBYLUkBffQyGrZS7Oj-5" value="Output (&quot;Bukan Kelipatan 7&quot;)" style="shape=parallelogram;perimeter=parallelogramPerimeter;whiteSpace=wrap;html=1;fixedSize=1;strokeWidth=2;" vertex="1" parent="1">
          <mxGeometry x="490" y="280" width="190" height="60" as="geometry" />
        </mxCell>
        <mxCell id="J4iBYLUkBffQyGrZS7Oj-6" value="Selesai" style="strokeWidth=2;html=1;shape=mxgraph.flowchart.start_1;whiteSpace=wrap;" vertex="1" parent="1">
          <mxGeometry x="314" y="500" width="100" height="60" as="geometry" />
        </mxCell>
        <mxCell id="J4iBYLUkBffQyGrZS7Oj-13" value="ya" style="text;html=1;align=center;verticalAlign=middle;resizable=0;points=[];autosize=1;strokeColor=none;fillColor=none;" vertex="1" parent="1">
          <mxGeometry x="330" y="355" width="40" height="30" as="geometry" />
        </mxCell>
        <mxCell id="J4iBYLUkBffQyGrZS7Oj-14" value="tidak" style="text;html=1;align=center;verticalAlign=middle;resizable=0;points=[];autosize=1;strokeColor=none;fillColor=none;" vertex="1" parent="1">
          <mxGeometry x="415" y="285" width="50" height="30" as="geometry" />
        </mxCell>
      </root>
    </mxGraphModel>
  </diagram>
  <diagram id="SARw_Kcw7aM6muSDDsZ2" name="Soal 3">
    <mxGraphModel dx="1050" dy="541" grid="1" gridSize="10" guides="1" tooltips="1" connect="1" arrows="1" fold="1" page="1" pageScale="1" pageWidth="827" pageHeight="1169" math="0" shadow="0">
      <root>
        <mxCell id="0" />
        <mxCell id="1" parent="0" />
        <mxCell id="Y3riL8lJjIkqrQNlyFGT-10" value="" style="edgeStyle=orthogonalEdgeStyle;rounded=0;orthogonalLoop=1;jettySize=auto;html=1;" edge="1" parent="1" source="Y3riL8lJjIkqrQNlyFGT-3" target="Y3riL8lJjIkqrQNlyFGT-4">
          <mxGeometry relative="1" as="geometry" />
        </mxCell>
        <mxCell id="Y3riL8lJjIkqrQNlyFGT-3" value="Mulai" style="strokeWidth=2;html=1;shape=mxgraph.flowchart.start_1;whiteSpace=wrap;" vertex="1" parent="1">
          <mxGeometry x="314" y="70" width="100" height="60" as="geometry" />
        </mxCell>
        <mxCell id="Y3riL8lJjIkqrQNlyFGT-11" value="" style="edgeStyle=orthogonalEdgeStyle;rounded=0;orthogonalLoop=1;jettySize=auto;html=1;" edge="1" parent="1" source="Y3riL8lJjIkqrQNlyFGT-4" target="Y3riL8lJjIkqrQNlyFGT-5">
          <mxGeometry relative="1" as="geometry" />
        </mxCell>
        <mxCell id="Y3riL8lJjIkqrQNlyFGT-4" value="Input (A,B,T)" style="shape=parallelogram;perimeter=parallelogramPerimeter;whiteSpace=wrap;html=1;fixedSize=1;strokeWidth=2;" vertex="1" parent="1">
          <mxGeometry x="304" y="170" width="120" height="60" as="geometry" />
        </mxCell>
        <mxCell id="Y3riL8lJjIkqrQNlyFGT-12" value="" style="edgeStyle=orthogonalEdgeStyle;rounded=0;orthogonalLoop=1;jettySize=auto;html=1;" edge="1" parent="1" source="Y3riL8lJjIkqrQNlyFGT-5" target="Y3riL8lJjIkqrQNlyFGT-6">
          <mxGeometry relative="1" as="geometry" />
        </mxCell>
        <mxCell id="Y3riL8lJjIkqrQNlyFGT-5" value="L=((A+B)*T)/2" style="rounded=0;whiteSpace=wrap;html=1;strokeWidth=2;" vertex="1" parent="1">
          <mxGeometry x="304" y="260" width="120" height="60" as="geometry" />
        </mxCell>
        <mxCell id="Y3riL8lJjIkqrQNlyFGT-13" value="" style="edgeStyle=orthogonalEdgeStyle;rounded=0;orthogonalLoop=1;jettySize=auto;html=1;" edge="1" parent="1" source="Y3riL8lJjIkqrQNlyFGT-6" target="Y3riL8lJjIkqrQNlyFGT-7">
          <mxGeometry relative="1" as="geometry" />
        </mxCell>
        <mxCell id="Y3riL8lJjIkqrQNlyFGT-6" value="Output (L)" style="shape=parallelogram;perimeter=parallelogramPerimeter;whiteSpace=wrap;html=1;fixedSize=1;strokeWidth=2;" vertex="1" parent="1">
          <mxGeometry x="304" y="350" width="120" height="60" as="geometry" />
        </mxCell>
        <mxCell id="Y3riL8lJjIkqrQNlyFGT-7" value="Selesai" style="strokeWidth=2;html=1;shape=mxgraph.flowchart.start_1;whiteSpace=wrap;" vertex="1" parent="1">
          <mxGeometry x="314" y="440" width="100" height="60" as="geometry" />
        </mxCell>
      </root>
    </mxGraphModel>
  </diagram>
</mxfile>
